# xmcd CD database file
#
# Track frame offsets:
#	150
#	21192
#	37825
#	50515
#	68062
#	79157
#	89577
#	100479
#	112790
#	126425
#	139632
#	149570
#	162265
#	176522
#	188527
#	199937
#	212100
#	223222
#	240267
#	257852
#	274095
#	288145
#	304845
#
# Disc length: 4237 seconds
#
# Revision: 0
# Processed by: cddbd v1.5.2PL0 Copyright (c) Steve Scherf et al.
# Submitted via: CDex 1.70beta2
#
DISCID=53108b17
DTITLE=Jones Classic Country - Jones Classic Country CCC-616
DYEAR=0000
DGENRE=Country
TTITLE0=Brenda Lee/BigFour Poster bed
TTITLE1=dickey lee/rocky
TTITLE2=johnny lee/one in a million
TTITLE3=lerry lee lewis/middle age crazy
TTITLE4=hank locklin/please help me i'm falling
TTITLE5=loretta lynn/you ain't woman enough to take my man
TTITLE6=loretta lynn/you're looking at country
TTITLE7=loretta lynn/one's on the way
TTITLE8=barbara mandrell/married but not to each other
TTITLE9=barbara mandrell/wish you were here
TTITLE10=charly mcclain/who's cheatin' who
TTITLE11=ronnie mcdowell/watchin' girls go by
TTITLE12=ronnie mcdowell/you're gonna ruin my bad reputation
TTITLE13=ronnie mcdowell/in a new york minute
TTITLE14=roger miller/husbands and wives
TTITLE15=ronnie milsap/my heart
TTITLE16=gary morris/velvet chains
TTITLE17=gary morris/100% chance of rain
TTITLE18=gary morris/leave me lonely
TTITLE19=merle haggard and willie nelson/reasons to quit
TTITLE20=oak ridge boys/love song
TTITLE21=oak ridge boys/elvira
TTITLE22=oak ridge boys/bobby sue
EXTD=YEAR: 0000
EXTT0=
EXTT1=
EXTT2=
EXTT3=
EXTT4=
EXTT5=
EXTT6=
EXTT7=
EXTT8=
EXTT9=
EXTT10=
EXTT11=
EXTT12=
EXTT13=
EXTT14=
EXTT15=
EXTT16=
EXTT17=
EXTT18=
EXTT19=
EXTT20=
EXTT21=
EXTT22=
PLAYORDER=
